<svg xmlns="http://www.w3.org/2000/svg" width="229" height="70" viewBox="0 0 229 70">
    <g fill="none">
        <path fill="#CED500" d="M13.996 29.889c3.59 4.855 3.077 9.449 0 11.812-3.077 2.364-7.564 1.627-11.167-3.252C-.773 33.571.877 24 .877 24s9.55 1.04 13.119 5.889z" style="mix-blend-mode:multiply"/>
        <path fill="#CED500" d="M14.106 41.701c-3.109 2.364-7.623 1.627-11.256-3.252C-.784 33.571.88 24 .88 24s16.336 15.338 13.226 17.701z" style="mix-blend-mode:multiply"/>
        <path fill="#FBC100" d="M23.421 16.594c-.823 6.013-4.364 8.886-8.167 8.34-3.803-.545-6.425-4.306-5.602-10.32C10.475 8.601 18.25 3 18.25 3s6 7.58 5.17 13.594z" style="mix-blend-mode:multiply"/>
        <path fill="#FBC100" d="M15.37 24.99c-3.891-.547-6.554-4.318-5.715-10.346C10.495 8.615 18.427 3 18.427 3s.822 22.537-3.057 21.99z" style="mix-blend-mode:multiply"/>
        <path fill="#CED500" d="M39.606 13.489c-4.85 3.6-9.443 3.086-11.812 0-2.37-3.086-1.597-7.578 3.252-11.166C35.895-1.267 45.5.374 45.5.374s-1.04 9.52-5.894 13.115z" style="mix-blend-mode:multiply"/>
        <path fill="#CED500" d="M27.789 13.606c-2.358-3.114-1.597-7.634 3.253-11.262C35.892-1.283 45.5.381 45.5.381S30.147 16.716 27.789 13.606z" style="mix-blend-mode:multiply"/>
        <path fill="#FBC100" d="M52.91 22.921c-6.016-.794-8.867-4.356-8.35-8.168.516-3.813 4.314-6.428 10.325-5.6 6.01.829 11.615 8.612 11.615 8.612s-7.573 5.985-13.59 5.156z" style="mix-blend-mode:multiply"/>
        <path fill="#FBC100" d="M44.509 14.86c.582-3.872 4.325-6.548 10.35-5.704C60.882 10 66.5 17.929 66.5 17.929s-22.51.815-21.991-3.069z" style="mix-blend-mode:multiply"/>
        <path fill="#CED500" d="M55.006 40.11c-3.594-4.857-3.08-9.452 0-11.817 3.08-2.364 7.576-1.603 11.17 3.253C69.769 36.403 68.124 46 68.124 46s-9.518-1.04-13.118-5.89z" style="mix-blend-mode:multiply"/>
        <path fill="#CED500" d="M54.894 28.293c3.11-2.364 7.639-1.603 11.262 3.253C69.78 36.403 68.121 46 68.121 46S51.783 30.658 54.894 28.293z" style="mix-blend-mode:multiply"/>
        <path fill="#FBC100" d="M45.579 53.402c.823-6.01 4.365-8.882 8.167-8.337 3.803.546 6.425 4.305 5.602 10.332C58.525 61.425 50.732 67 50.732 67s-5.982-7.588-5.153-13.598z" style="mix-blend-mode:multiply"/>
        <path fill="#FBC100" d="M53.64 45.01c3.867.547 6.544 4.319 5.706 10.349C58.507 61.389 50.569 67 50.569 67s-.804-22.537 3.07-21.99z" style="mix-blend-mode:multiply"/>
        <path fill="#CED500" d="M28.392 56.508c4.853-3.599 9.45-3.079 11.814 0 2.365 3.078 1.604 7.568-3.248 11.166-4.852 3.599-14.458 1.948-14.458 1.948s1.034-9.522 5.892-13.114z" style="mix-blend-mode:multiply"/>
        <path fill="#CED500" d="M40.206 56.394c2.365 3.11 1.604 7.632-3.248 11.26C32.106 71.285 22.5 69.62 22.5 69.62s15.341-16.336 17.706-13.225z" style="mix-blend-mode:multiply"/>
        <path fill="#FBC100" d="M16.092 46.075c6.014.824 8.888 4.367 8.343 8.167-.546 3.799-4.308 6.434-10.323 5.605C8.097 59.017 2.5 51.226 2.5 51.226s7.577-5.957 13.592-5.15z" style="mix-blend-mode:multiply"/>
        <path fill="#FBC100" d="M24.491 54.138c-.547 3.873-4.319 6.55-10.35 5.706C8.112 59 2.5 51.068 2.5 51.068s22.51-.798 21.991 3.07z" style="mix-blend-mode:multiply"/>
        <path fill="#EB6585" d="M21.52 28.716c1.904 3.721.873 6.707-1.704 7.857-2.577 1.15-5.711 0-7.615-3.694-1.904-3.693.673-9.879.673-9.879s6.736 2 8.646 5.716z" style="mix-blend-mode:multiply"/>
        <path fill="#EB6585" d="M19.096 36.58c-2.354 1.133-5.217 0-6.956-3.696-1.739-3.695.615-9.884.615-9.884s8.694 12.429 6.34 13.58z" style="mix-blend-mode:multiply"/>
        <path fill="#A4C615" d="M29.144 21.137c-1.369 4.039-4.157 5.522-6.668 4.598-2.51-.924-3.789-3.897-2.414-7.936C21.436 13.761 27.475 11 27.475 11s3.043 6.099 1.669 10.137z" style="mix-blend-mode:multiply"/>
        <path fill="#A4C615" d="M22.485 24.963c-2.513-.876-3.801-3.693-2.422-7.52C21.44 13.616 27.5 11 27.5 11s-2.496 14.839-5.015 13.963z" style="mix-blend-mode:multiply"/>
        <path fill="#EB6585" d="M40.781 22.024c-3.718 1.898-6.71.867-7.856-1.71-1.144-2.577 0-5.706 3.69-7.61 3.69-1.905 9.885.66 9.885.66s-2.012 6.756-5.719 8.66z" style="mix-blend-mode:multiply"/>
        <path fill="#EB6585" d="M32.92 19.596c-1.133-2.35 0-5.214 3.692-6.953 3.69-1.74 9.888.604 9.888.604s-12.434 8.704-13.58 6.349z" style="mix-blend-mode:multiply"/>
        <path fill="#A4C615" d="M48.365 29.658c-4.042-1.37-5.521-4.167-4.602-6.68.92-2.514 3.907-3.788 7.949-2.418 4.042 1.37 6.788 7.4 6.788 7.4S52.413 31 48.365 29.658z" style="mix-blend-mode:multiply"/>
        <path fill="#A4C615" d="M44.537 22.981c.877-2.512 3.703-3.794 7.535-2.421C55.903 21.932 58.5 28 58.5 28s-14.84-2.5-13.963-5.019z" style="mix-blend-mode:multiply"/>
        <path fill="#EB6585" d="M47.479 41.284c-1.904-3.721-.867-6.707 1.704-7.857 2.57-1.15 5.712 0 7.616 3.694 1.904 3.693-.673 9.879-.673 9.879s-6.75-2-8.647-5.716z" style="mix-blend-mode:multiply"/>
        <path fill="#EB6585" d="M49.903 33.42c2.354-1.133 5.217 0 6.957 3.696C58.599 40.81 56.245 47 56.245 47s-8.69-12.429-6.342-13.58z" style="mix-blend-mode:multiply"/>
        <path fill="#A4C615" d="M39.856 48.863c1.37-4.039 4.163-5.522 6.668-4.598 2.506.924 3.79 3.897 2.415 7.936C47.565 56.239 41.525 59 41.525 59s-3.043-6.075-1.669-10.137z" style="mix-blend-mode:multiply"/>
        <path fill="#A4C615" d="M46.514 44.037c2.519.87 3.801 3.693 2.423 7.52C47.558 55.384 41.5 58 41.5 58s2.496-14.839 5.014-13.963z" style="mix-blend-mode:multiply"/>
        <path fill="#EB6585" d="M28.218 47.979c3.723-1.905 6.704-.868 7.854 1.71 1.15 2.578 0 5.713-3.689 7.611-3.69 1.899-9.883-.667-9.883-.667s1.995-6.75 5.718-8.654z" style="mix-blend-mode:multiply"/>
        <path fill="#EB6585" d="M36.08 50.407c1.133 2.35 0 5.22-3.692 6.954-3.69 1.734-9.888-.61-9.888-.61s12.428-8.71 13.58-6.344z" style="mix-blend-mode:multiply"/>
        <path fill="#A4C615" d="M19.64 39.354c4.038 1.373 5.515 4.16 4.597 6.67-.918 2.51-3.902 3.788-7.94 2.415C12.26 47.065 9.5 41.027 9.5 41.027s6.097-3.041 10.14-1.673z" style="mix-blend-mode:multiply"/>
        <path fill="#A4C615" d="M23.463 46.015c-.875 2.513-3.697 3.801-7.522 2.422C12.115 47.06 9.5 41 9.5 41s14.833 2.496 13.963 5.015z" style="mix-blend-mode:multiply"/>
        <path fill="#8A549C" d="M29.494 27.762c-.14 2.214-1.334 3.322-2.7 3.233-1.365-.089-2.44-1.373-2.278-3.566.162-2.192 2.791-4.429 2.791-4.429s2.327 2.575 2.187 4.762z" style="mix-blend-mode:multiply"/>
        <path fill="#8A549C" d="M26.489 31c-1.795-.09-3.149-1.375-2.974-3.568.176-2.194 3.626-4.432 3.626-4.432s1.144 8.093-.652 8z" style="mix-blend-mode:multiply"/>
        <path fill="#E9C200" d="M36.112 27.553c-2.253 1.897-4.542 1.813-5.823.419-1.28-1.395-1.077-3.576 1.165-5.479 2.242-1.902 7.046-1.445 7.046-1.445s-.134 4.608-2.388 6.505z" style="mix-blend-mode:multiply"/>
        <path fill="#E9C200" d="M30.29 27.845c-1.282-1.375-1.078-3.511 1.164-5.379 2.242-1.868 7.046-1.419 7.046-1.419s-6.936 8.168-8.21 6.798z" style="mix-blend-mode:multiply"/>
        <path fill="#8A549C" d="M41.738 29.994c-2.214-.135-3.322-1.333-3.233-2.699.089-1.365 1.373-2.423 3.566-2.282 2.192.14 4.429 2.79 4.429 2.79s-2.57 2.331-4.762 2.19z" style="mix-blend-mode:multiply"/>
        <path fill="#8A549C" d="M38.5 26.994c.09-1.795 1.375-3.16 3.568-2.978 2.194.183 4.432 3.64 4.432 3.64s-8.093 1.112-8-.662z" style="mix-blend-mode:multiply"/>
        <path fill="#00AFB1" d="M41.942 37.6c-1.892-2.25-1.808-4.527-.411-5.812 1.397-1.284 3.567-1.069 5.46 1.163C48.882 35.182 48.46 40 48.46 40s-4.62-.145-6.518-2.4z" style="mix-blend-mode:multiply"/>
        <path fill="#00AFB1" d="M41.66 31.787c1.365-1.28 3.501-1.07 5.358 1.163C48.876 35.184 48.46 40 48.46 40s-8.194-6.934-6.8-8.213z" style="mix-blend-mode:multiply"/>
        <path fill="#8A549C" d="M39.506 42.241c.14-2.213 1.339-3.32 2.699-3.237 1.36.083 2.423 1.378 2.283 3.57-.14 2.19-2.785 4.426-2.785 4.426s-2.337-2.567-2.197-4.759z" style="mix-blend-mode:multiply"/>
        <path fill="#8A549C" d="M41.51 39c1.8.095 3.156 1.38 2.973 3.571C44.301 44.764 40.857 47 40.857 47s-1.14-8.088.653-8z" style="mix-blend-mode:multiply"/>
        <path fill="#E9C200" d="M32.888 42.446c2.259-1.896 4.542-1.812 5.823-.418 1.28 1.395 1.077 3.575-1.165 5.472-2.242 1.896-7.046 1.456-7.046 1.456s.134-4.608 2.388-6.51z" style="mix-blend-mode:multiply"/>
        <path fill="#E9C200" d="M38.713 42.155c1.276 1.369 1.078 3.51-1.165 5.372-2.242 1.862-7.048 1.43-7.048 1.43s6.932-8.171 8.213-6.802z" style="mix-blend-mode:multiply"/>
        <path fill="#8A549C" d="M28.262 40.006c2.214.135 3.322 1.333 3.233 2.699-.089 1.365-1.379 2.423-3.566 2.282-2.187-.14-4.429-2.79-4.429-2.79s2.58-2.331 4.762-2.19z" style="mix-blend-mode:multiply"/>
        <path fill="#8A549C" d="M31.499 42.023c-.089 1.785-1.38 3.143-3.568 2.96-2.188-.181-4.431-3.618-4.431-3.618s8.12-1.161 7.999.658z" style="mix-blend-mode:multiply"/>
        <path fill="#FAB900" d="M33.495 33.975c-.108 1.372-1.065 2.055-2.163 2.024-1.098-.03-1.915-.863-1.825-2.23.089-1.366 2.227-2.769 2.227-2.769s1.87 1.608 1.761 2.975z" style="mix-blend-mode:multiply"/>
        <path fill="#FAB900" d="M30.995 36c-.896-.062-1.562-.864-1.49-2.23.073-1.367 1.818-2.77 1.818-2.77s.567 5.056-.328 5z" style="mix-blend-mode:multiply"/>
        <path fill="#64C6F2" d="M35.529 32.995c-1.373-.108-2.064-1.06-2.028-2.166.036-1.106.862-1.917 2.24-1.821 1.377.096 2.759 2.224 2.759 2.224s-1.615 1.872-2.971 1.763z" style="mix-blend-mode:multiply"/>
        <path fill="#64C6F2" d="M33.5 31.492c.057-.897.856-1.564 2.223-1.486 1.368.078 2.777 1.814 2.777 1.814s-5.04.574-5-.328z" style="mix-blend-mode:multiply"/>
        <path fill="#FAB900" d="M36.505 36.027c.114-1.372 1.065-2.08 2.163-2.024 1.098.057 1.915.858 1.825 2.229C40.404 37.603 38.266 39 38.266 39s-1.87-1.607-1.761-2.973z" style="mix-blend-mode:multiply"/>
        <path fill="#FAB900" d="M38.005 34c.896.062 1.562.859 1.49 2.23-.073 1.372-1.818 2.77-1.818 2.77s-.567-5.056.328-5z" style="mix-blend-mode:multiply"/>
        <path fill="#64C6F2" d="M32.473 37.005c1.372.109 2.08 1.06 2.024 2.166-.057 1.106-.858 1.917-2.229 1.821-1.371-.096-2.768-2.223-2.768-2.223s1.607-1.879 2.973-1.764z" style="mix-blend-mode:multiply"/>
        <path fill="#64C6F2" d="M34.5 38.508c-.057.897-.859 1.564-2.23 1.486-1.372-.078-2.77-1.814-2.77-1.814s5.056-.574 5 .328z" style="mix-blend-mode:multiply"/>
        <path fill="#00AFB1" d="M27.054 33.387c1.897 2.253 1.813 4.535.413 5.822-1.4 1.286-3.575 1.077-5.471-1.165C20.1 35.803 20.546 31 20.546 31s4.612.134 6.508 2.387z" style="mix-blend-mode:multiply"/>
        <path fill="#00AFB1" d="M27.344 39.21c-1.37 1.282-3.512 1.078-5.375-1.164C20.107 35.804 20.545 31 20.545 31s8.174 6.93 6.8 8.21z" style="mix-blend-mode:multiply"/>
        <g>
            <path fill="#4B4534" d="M2.71 1.26L0 .94V.1h5.66v.94l-2.52.22h-.43zM1.23.1h2.09l4.12 11.71h-.45l4-11.73h1.13l-4.75 14h-.9L1.23.1zm9.6 1.16l-2.08-.22V.1h4.77v.84l-2.28.32h-.41zM17.52 13.14l2.08-.31h.41l2.27.31v.84h-4.76v-.84zM23.69 0h1.3l4.76 14h-2L23.62 1.65l.49-.06L19.89 14h-1l4.8-14zm-2.46 8.5h5.6l.34 1h-6.23l.29-1zm4.06 4.64l2.59-.31h.47l2.58.31v.84h-5.6l-.04-.84zM38.12.94V.1h5.87v.84l-2.72.32h-.43L38.12.94zm2.93 11.89v1.15h-2.93v-.84l2.72-.31h.21zM40.05.1h2.08c-.06 2.13-.06 4.29-.06 6.43v1.43c0 1.77 0 3.93.06 6h-2.12c.06-2.13.06-4.29.06-6.4v-1c0-2.21 0-4.36-.06-6.46h.04zm8.65 10l-.2 3.91h-7.45v-1h6.68l-1.16 1 .83-3.91h1.3zM56.34 1.26L53.63.94V.1h5.66v.94l-2.52.22h-.43zM54.82.1h2.1l4.11 11.71h-.45l4-11.73h1.13l-4.75 14h-.9L54.82.1zm9.6 1.16l-2.08-.22V.1h4.77v.84l-2.28.32h-.41zM74.46.94V.1h2.92v1.16h-.21L74.46.94zm2.92 11.89v1.15h-2.92v-.84l2.71-.31h.21zm-1-6.3c0-2.14 0-4.3-.07-6.43h2.09c-.07 2.09-.07 4.25-.07 6.43v.78c0 2.38 0 4.54.07 6.67h-2.09c.07-2.09.07-4.25.07-6.43V6.53zM83.06.1l1 1h-6.68v-1h7.4l.15 3.68h-1.2L83.06.1zm-1 7.28h-4.69v-1h4.69v1zm3.27 2.92l-.14 3.68h-7.82v-1h7.09l-1 1 .64-3.68h1.23zm-3.94-3.68l.32-2.19h.94v4.9h-.94l-.32-2.29v-.42zM93.23.94V.1h2.93v1.16h-.22L93.23.94zm3.14 11.89l2.72.31v.84h-5.86v-.84l2.71-.31h.43zm-1.19-6.3c0-2.14 0-4.3-.06-6.43h2.08c-.06 2.15-.06 4.19-.06 6.63v.62c0 2.34 0 4.5.06 6.63h-2.08c.06-2.09.06-4.25.06-6.43V6.53zm1 .08h2.59c2.23 0 3.28-1.2 3.28-2.86s-.93-2.68-3.06-2.68h-2.86v-1H99c3.18 0 5 1.34 5 3.64 0 1.75-1.38 3.35-4.15 3.58l.06-.17c1.59.14 2.5.85 3.05 2.73l1 3.43-.71-.43 2.2.26v.84c-.5.15-1.019.22-1.54.21-1.31 0-1.9-.34-2.15-1.33l-.82-3.33c-.41-1.66-1.16-2-2.85-2h-2l.09-.89zM112.93.94V.1h2.93v1.16h-.22l-2.71-.32zm2.93 11.89v1.15h-2.93v-.84l2.71-.31h.22zm-1-6.3c0-2.14 0-4.3-.06-6.43h2.08c-.06 2.09-.06 4.25-.06 6.43v.78c0 2.38 0 4.54.06 6.67h-2.08c.06-2.09.06-4.25.06-6.67v-.78zm1 6.48h2.66c3.21 0 5-2.19 5-5.95 0-3.91-1.77-6-4.8-6h-2.84v-1h3.19c4 0 6.7 2.45 6.7 7s-3.06 6.92-7.11 6.92h-2.78l-.02-.97zM133.23.94V.1h3v1.16h-.21l-2.79-.32zm3 11.89v1.15h-3v-.84l2.71-.31h.29zm-1-6.3c0-2.14 0-4.3-.06-6.43h2.06c-.07 2.09-.07 4.25-.07 6.43v.78c0 2.38 0 4.54.07 6.67h-2.09c.06-2.09.06-4.25.06-6.43l.03-1.02zM141.92.1l1 1h-6.69v-1h7.4l.15 3.68h-1.2L141.92.1zm-1 7.28h-4.69v-1h4.69v1zm3.27 2.92l-.14 3.68h-7.82v-1h7l-1 1 .64-3.68h1.32zm-3.96-3.68l.32-2.19h.94v4.9h-.94l-.32-2.29v-.42z" transform="translate(84 18)"/>
            <path fill="#575756" d="M4.23 28.87h.72l2.73 6.42h-.89l-.65-1.58H2.96l-.66 1.58h-.86l2.79-6.42zm.35 1L3.23 33h2.62l-1.27-3.13zM14.9 28.87h1.9c.286-.001.57.029.85.09.256.051.5.15.72.29.205.137.374.322.49.54.135.259.2.548.19.84.01.302-.06.602-.2.87-.121.22-.297.407-.51.54-.207.136-.437.231-.68.28-.232.058-.47.088-.71.09h-1.29v2.88h-.76v-6.42zm.76 2.83h1.29c.33.013.655-.078.93-.26.223-.206.35-.496.35-.8 0-.304-.127-.594-.35-.8-.273-.186-.6-.277-.93-.26h-1.29v2.12zM28.03 28.87h.72l2.72 6.42h-.89l-.65-1.58h-3.21l-.66 1.58h-.83l2.8-6.42zm.34 1l-1.34 3.15h2.62l-1.28-3.15zM38.67 28.87h1.64c.308 0 .615.02.92.06.285.028.562.106.82.23.239.123.442.306.59.53.162.29.239.619.22.95.019.421-.133.832-.42 1.14-.324.305-.738.498-1.18.55l1.82 3h-.93l-1.74-2.88h-1v2.88h-.76l.02-6.46zm.76 2.83h1.33c.215-.007.428-.048.63-.12.183-.056.346-.164.47-.31.133-.175.2-.39.19-.61.007-.193-.041-.384-.14-.55-.09-.138-.215-.251-.36-.33-.159-.074-.327-.124-.5-.15-.183-.01-.367-.01-.55 0h-1.07v2.07zM54.69 29.58L52.57 29.58 52.57 35.29 51.8 35.29 51.8 29.58 49.68 29.58 49.68 28.87 54.68 28.87zM63.23 28.87h.71l2.73 6.42h-.89l-.65-1.58h-3.21l-.66 1.58h-.86l2.83-6.42zm.34 1l-1.33 3.15h2.62l-1.29-3.15zM73.81 28.87L74.95 28.87 77.12 33.87 77.12 33.87 79.31 28.87 80.42 28.87 80.42 35.29 79.66 35.29 79.66 29.9 79.66 29.9 77.36 35.29 76.89 35.29 74.59 29.9 74.59 29.9 74.59 35.29 73.83 35.29zM88.37 28.87L92.37 28.87 92.37 29.58 89.13 29.58 89.13 31.58 92.23 31.58 92.23 32.29 89.13 32.29 89.13 34.57 92.57 34.57 92.57 35.28 88.37 35.28zM100.09 28.87L101.09 28.87 104.8 34.2 104.8 34.2 104.8 28.87 105.56 28.87 105.56 35.29 104.56 35.29 100.85 29.96 100.85 29.96 100.85 35.29 100.09 35.29zM117.78 29.58L115.66 29.58 115.66 35.29 114.9 35.29 114.9 29.58 112.78 29.58 112.78 28.87 117.78 28.87zM128 35.45c-.459.006-.914-.079-1.34-.25-.397-.164-.757-.405-1.06-.71-.306-.303-.545-.668-.7-1.07-.166-.427-.251-.882-.25-1.34 0-.462.085-.92.25-1.35.16-.4.398-.763.7-1.07.306-.298.666-.536 1.06-.7.866-.334 1.824-.334 2.69 0 .394.164.754.402 1.06.7.302.307.54.67.7 1.07.165.43.25.888.25 1.35.001.458-.084.913-.25 1.34-.155.402-.394.767-.7 1.07-.303.305-.663.546-1.06.71-.429.172-.888.257-1.35.25zm0-.71c.344 0 .685-.07 1-.21.307-.126.58-.321.8-.57.229-.243.409-.529.53-.84.116-.32.177-.659.18-1-.003-.341-.064-.68-.18-1-.124-.313-.303-.601-.53-.85-.225-.242-.497-.436-.8-.57-.657-.266-1.393-.266-2.05 0-.306.133-.581.327-.81.57-.466.518-.716 1.194-.7 1.89.003.341.064.68.18 1 .121.309.298.594.52.84.223.249.5.444.81.57.333.133.692.19 1.05.17zM141.97 30c-.122-.195-.3-.348-.51-.44-.207-.096-.432-.144-.66-.14-.168 0-.336.02-.5.06-.157.036-.306.1-.44.19-.277.179-.44.49-.43.82-.005.133.02.266.07.39.048.116.124.22.22.3.126.108.267.196.42.26l.64.23c.244.075.485.161.72.26.222.083.43.198.62.34.177.14.32.318.42.52.115.243.17.51.16.78.008.291-.057.58-.19.84-.122.228-.293.426-.5.58-.216.16-.46.279-.72.35-.278.072-.563.11-.85.11-.188-.002-.375-.019-.56-.05-.185-.031-.366-.082-.54-.15-.173-.07-.334-.164-.48-.28-.154-.111-.287-.25-.39-.41l.65-.53c.137.23.338.415.58.53.246.12.516.181.79.18.166.001.331-.022.49-.07.16-.045.312-.116.45-.21.132-.094.244-.213.33-.35.083-.147.128-.312.13-.48.003-.169-.031-.336-.1-.49-.076-.13-.183-.24-.31-.32-.166-.101-.344-.182-.53-.24l-.74-.26c-.217-.063-.428-.147-.63-.25-.19-.081-.362-.197-.51-.34-.141-.14-.253-.307-.33-.49-.088-.216-.132-.447-.13-.68-.008-.282.057-.561.19-.81.115-.226.283-.422.49-.57.205-.16.44-.28.69-.35.266-.081.542-.121.82-.12.341-.009.68.05 1 .17.314.117.59.318.8.58l-.63.54z" transform="translate(84 18)"/>
        </g>
    </g>
</svg>
